<svg width="18" height="22" viewBox="0 0 18 22" fill="none" xmlns="http://www.w3.org/2000/svg">
<path d="M9.59317 21.2579L9.58217 21.2599L9.51117 21.2949L9.49117 21.2989L9.47717 21.2949L9.40617 21.2599C9.39551 21.2566 9.3875 21.2583 9.38217 21.2649L9.37817 21.2749L9.36117 21.7029L9.36617 21.7229L9.37617 21.7359L9.48017 21.8099L9.49517 21.8139L9.50717 21.8099L9.61117 21.7359L9.62317 21.7199L9.62717 21.7029L9.61017 21.2759C9.6075 21.2653 9.60184 21.2593 9.59317 21.2579ZM9.85817 21.1449L9.84517 21.1469L9.66017 21.2399L9.65017 21.2499L9.64717 21.2609L9.66517 21.6909L9.67017 21.7029L9.67817 21.7099L9.87917 21.8029C9.89184 21.8063 9.9015 21.8036 9.90817 21.7949L9.91217 21.7809L9.87817 21.1669C9.87484 21.1549 9.86817 21.1476 9.85817 21.1449ZM9.14317 21.1469C9.13876 21.1443 9.1335 21.1434 9.12847 21.1445C9.12344 21.1456 9.11903 21.1487 9.11617 21.1529L9.11017 21.1669L9.07617 21.7809C9.07684 21.7929 9.08251 21.8009 9.09317 21.8049L9.10817 21.8029L9.30917 21.7099L9.31917 21.7019L9.32317 21.6909L9.34017 21.2609L9.33717 21.2489L9.32717 21.2389L9.14317 21.1469Z" fill="#D9D9D9"/>
<path d="M5 3V5H2V18H16V5H13V3H16C16.5304 3 17.0391 3.21071 17.4142 3.58579C17.7893 3.96086 18 4.46957 18 5V18C18 18.5304 17.7893 19.0391 17.4142 19.4142C17.0391 19.7893 16.5304 20 16 20H2C1.46957 20 0.960859 19.7893 0.585786 19.4142C0.210714 19.0391 0 18.5304 0 18V5C0 4.46957 0.210714 3.96086 0.585786 3.58579C0.960859 3.21071 1.46957 3 2 3H5ZM9 0C9.26522 0 9.51957 0.105357 9.70711 0.292893C9.89464 0.48043 10 0.734784 10 1V11.828L11.828 10C11.9208 9.90709 12.0311 9.83338 12.1524 9.78307C12.2737 9.73276 12.4038 9.70684 12.5351 9.7068C12.6665 9.70675 12.7966 9.73258 12.9179 9.7828C13.0393 9.83302 13.1496 9.90666 13.2425 9.9995C13.3354 10.0923 13.4091 10.2026 13.4594 10.3239C13.5097 10.4452 13.5357 10.5753 13.5357 10.7066C13.5357 10.838 13.5099 10.9681 13.4597 11.0894C13.4095 11.2108 13.3358 11.3211 13.243 11.414L9.883 14.773C9.64861 15.0072 9.33083 15.1387 8.9995 15.1387C8.66817 15.1387 8.35039 15.0072 8.116 14.773L4.757 11.414C4.66416 11.3211 4.59052 11.2108 4.5403 11.0894C4.49008 10.9681 4.46425 10.838 4.4643 10.7066C4.46434 10.5753 4.49026 10.4452 4.54057 10.3239C4.59088 10.2026 4.66459 10.0923 4.7575 9.9995C4.85041 9.90666 4.9607 9.83302 5.08207 9.7828C5.20343 9.73258 5.3335 9.70675 5.46485 9.7068C5.5962 9.70684 5.72626 9.73276 5.84759 9.78307C5.96892 9.83338 6.07916 9.90709 6.172 10L8 11.828V1C8 0.734784 8.10536 0.48043 8.29289 0.292893C8.48043 0.105357 8.73478 0 9 0Z" fill="#D9D9D9"/>
</svg>
